<svg xmlns="http://www.w3.org/2000/svg" viewBox="0 0 1368 667" preserveAspectRatio="xMidYMid" width="1368" height="667" style="shape-rendering: auto; display: block; background: rgb(255, 255, 255);"><g data-idx="1"><g opacity="0.4" transform="matrix(100,0,0,100,1569.38818359375,-309.7721862792969)" data-idx="2">
  <path stroke-width="0" fill="#ff4646" d="M10.72512 0 C10.72512 2.1887999999999996 10.761737659397237 3.6858835961966205 9.667337659397237 5.58144 S7.25811640380338 8.193826378636558 5.362560000000001 9.288226378636558 S2.1888000000000005 11.162880000000001 6.835292630633003e-16 11.162880000000001 S-3.4670035961966184 10.382626378636559 -5.3625599999999976 9.28822637863656 S-8.572937659397233 7.4769964038033825 -9.667337659397234 5.581440000000004 S-10.72512 2.188800000000001 -10.72512 1.3134483878471262e-15 S-10.761737659397236 -3.6858835961966188 -9.667337659397237 -5.581439999999998 S-7.258116403803383 -8.193826378636556 -5.362560000000005 -9.288226378636557 S-2.188800000000002 -11.162880000000001 -2.050587789189901e-15 -11.162880000000001 S3.467003596196613 -10.382626378636562 5.362559999999993 -9.288226378636564 S8.572937659397232 -7.476996403803384 9.667337659397232 -5.581440000000006 S10.72512 -2.1888000000000023 10.72512 -2.6268967756942524e-15" data-idx="3" transform="matrix(0.7771459614569709,0.6293203910498374,-0.6293203910498374,0.7771459614569709,0,0)">
    
  </path>
</g><g opacity="0.4" transform="matrix(100,0,0,100,1746.4658203125,-438.4266052246094)" data-idx="5">
  <path stroke-width="0" fill="#f42d29" d="M12.870144 0 C12.870144 2.626559999999999 12.91408519127668 4.423060315435944 11.600805191276681 6.697727999999999 S8.709739684564056 9.83259165436387 6.435072000000002 11.14587165436387 S2.62656 13.395456 8.202351156759603e-16 13.395456 S-4.160404315435942 12.45915165436387 -6.435071999999997 11.145871654363871 S-10.287525191276679 8.972395684564058 -11.60080519127668 6.697728000000004 S-12.870144 2.626560000000001 -12.870144 1.5761380654165513e-15 S-12.914085191276682 -4.423060315435942 -11.600805191276683 -6.697727999999996 S-8.70973968456406 -9.832591654363865 -6.435072000000005 -11.145871654363866 S-2.626560000000002 -13.395456 -2.4607053470278807e-15 -13.395456 S4.160404315435935 -12.459151654363872 6.435071999999991 -11.145871654363875 S10.287525191276677 -8.97239568456406 11.600805191276677 -6.697728000000006 S12.870144 -2.6265600000000022 12.870144 -3.1522761308331025e-15" data-idx="6" transform="matrix(0.9510565162951535,0.3090169943749474,-0.3090169943749474,0.9510565162951535,0,0)">
    
  </path>
</g><g opacity="0.4" transform="matrix(100,0,0,100,2171.4521484375,-747.197265625)" data-idx="8">
  <path stroke-width="0" fill="#e70202" d="M18.018201599999998 0 C18.018201599999998 3.677183999999999 18.079719267787354 6.1922844416103215 16.241127267787355 9.376819199999998 S12.193635558389676 13.765628316109416 9.0091008 15.604220316109416 S3.6771840000000005 18.7536384 1.1483291619463445e-15 18.7536384 S-5.824566041610319 17.442812316109418 -9.009100799999995 15.604220316109418 S-14.402535267787352 12.561353958389683 -16.241127267787352 9.376819200000007 S-18.018201599999998 3.6771840000000013 -18.018201599999998 2.2065932915831717e-15 S-18.079719267787354 -6.192284441610317 -16.241127267787355 -9.376819199999995 S-12.193635558389683 -13.76562831610941 -9.009100800000008 -15.604220316109412 S-3.6771840000000027 -18.7536384 -3.4449874858390333e-15 -18.7536384 S5.824566041610309 -17.44281231610942 9.009100799999986 -15.604220316109423 S14.402535267787346 -12.561353958389684 16.24112726778735 -9.376819200000009 S18.018201599999998 -3.6771840000000036 18.018201599999998 -4.413186583166343e-15" data-idx="9" transform="matrix(0.5446367456603034,0.8386720546653227,-0.8386720546653227,0.5446367456603034,0,0)">
    
  </path>
</g><g data-idx="11"></g></g><text data-watermark="true" text-anchor="middle" dominant-baseline="middle" stroke-opacity="0.1" fill="black" fill-opacity="0.1" stroke="white" stroke-width="1" font-size="15.0" x="684.0" y="333.5" data-idx="12" style="opacity: 1; font-size: 15px;">LOADING.IO</text></svg>