<?xml version="1.0" encoding="iso-8859-1"?>
<!-- Uploaded to: SVG Repo, www.svgrepo.com, Generator: SVG Repo Mixer Tools -->
<svg version="1.1" id="Layer_1" xmlns="http://www.w3.org/2000/svg" xmlns:xlink="http://www.w3.org/1999/xlink" 
	 viewBox="0 0 512 512" xml:space="preserve">
<rect x="67.288" y="67.288" style="fill:#E21B1B;" width="377.44" height="377.44"/>
<rect x="59.288" width="16" height="512"/>
<rect x="436.72" width="16" height="512"/>
<rect y="436.72" width="512" height="16"/>
<rect y="59.288" width="512" height="16"/>
<path style="fill:#FFFFFF;" d="M256,355.88c-55.16,0-99.88-44.72-99.88-99.88s44.72-99.88,99.88-99.88s99.88,44.72,99.88,99.88
	C355.816,311.136,311.136,355.816,256,355.88z M256,172.112c-46.328,0-83.88,37.552-83.88,83.88s37.552,83.88,83.88,83.88
	c46.32,0,83.872-37.552,83.88-83.872C339.816,209.704,302.296,172.184,256,172.112L256,172.112z"/>
</svg>