<?xml version="1.0" standalone="no"?>
<svg xmlns:xlink="http://www.w3.org/1999/xlink" id="wave" style="transform:rotate(180deg); transition: 0.3s" viewBox="0 0 1440 490" version="1.1" xmlns="http://www.w3.org/2000/svg"><defs><linearGradient id="sw-gradient-0" x1="0" x2="0" y1="1" y2="0"><stop stop-color="rgba(173.076, 0, 0, 1)" offset="0%"/><stop stop-color="rgba(177.63, 14.668, 14.668, 1)" offset="100%"/></linearGradient></defs><path style="transform:translate(0, 0px); opacity:1" fill="url(#sw-gradient-0)" d="M0,0L48,0C96,0,192,0,288,8.2C384,16,480,33,576,81.7C672,131,768,212,864,277.7C960,343,1056,392,1152,392C1248,392,1344,343,1440,318.5C1536,294,1632,294,1728,261.3C1824,229,1920,163,2016,114.3C2112,65,2208,33,2304,24.5C2400,16,2496,33,2592,106.2C2688,180,2784,310,2880,326.7C2976,343,3072,245,3168,220.5C3264,196,3360,245,3456,253.2C3552,261,3648,229,3744,179.7C3840,131,3936,65,4032,98C4128,131,4224,261,4320,261.3C4416,261,4512,131,4608,89.8C4704,49,4800,98,4896,171.5C4992,245,5088,343,5184,392C5280,441,5376,441,5472,408.3C5568,376,5664,310,5760,302.2C5856,294,5952,343,6048,359.3C6144,376,6240,359,6336,302.2C6432,245,6528,147,6624,89.8C6720,33,6816,16,6864,8.2L6912,0L6912,490L6864,490C6816,490,6720,490,6624,490C6528,490,6432,490,6336,490C6240,490,6144,490,6048,490C5952,490,5856,490,5760,490C5664,490,5568,490,5472,490C5376,490,5280,490,5184,490C5088,490,4992,490,4896,490C4800,490,4704,490,4608,490C4512,490,4416,490,4320,490C4224,490,4128,490,4032,490C3936,490,3840,490,3744,490C3648,490,3552,490,3456,490C3360,490,3264,490,3168,490C3072,490,2976,490,2880,490C2784,490,2688,490,2592,490C2496,490,2400,490,2304,490C2208,490,2112,490,2016,490C1920,490,1824,490,1728,490C1632,490,1536,490,1440,490C1344,490,1248,490,1152,490C1056,490,960,490,864,490C768,490,672,490,576,490C480,490,384,490,288,490C192,490,96,490,48,490L0,490Z"/></svg>